<?xml version="1.0"?><svg xmlns="http://www.w3.org/2000/svg"  viewBox="0 0 30 30" width="40px" height="40px">    <path d="M 7 3 C 5.895 3 5 3.895 5 5 L 5 26 C 5 27.105 5.895 28 7 28 L 23 28 C 24.105 28 25 27.105 25 26 L 25 10.5 C 25 10.235 24.895031 9.9809688 24.707031 9.7929688 L 18.207031 3.2929688 C 18.019031 3.1049688 17.765 3 17.5 3 L 7 3 z M 17 4.9042969 L 23.095703 11 L 18 11 C 17.448 11 17 10.552 17 10 L 17 4.9042969 z M 14.078125 12.300781 C 14.621125 12.300781 15.076375 12.530266 15.359375 12.947266 C 15.587375 13.281266 15.697266 13.710719 15.697266 14.261719 C 15.697266 15.206719 15.274234 16.690297 14.615234 18.279297 C 14.933234 19.000297 15.304219 19.714281 15.699219 20.363281 C 16.617219 20.369281 17.879203 20.452828 18.908203 20.798828 C 20.389203 21.294828 20.701172 22.110984 20.701172 22.708984 C 20.700172 23.569984 20.001797 24.5 18.466797 24.5 C 17.331797 24.5 16.066609 23.348484 14.974609 21.771484 C 14.178609 21.797484 13.422516 21.875187 12.728516 21.992188 C 11.456516 24.073187 10.015016 25.701172 8.9160156 25.701172 C 7.7080156 25.701172 7.3007812 24.507891 7.3007812 23.962891 C 7.3007812 22.249891 9.4673281 21.237187 11.861328 20.742188 C 12.313328 19.971187 12.750906 19.137547 13.128906 18.310547 C 12.571906 16.929547 12.228516 15.579172 12.228516 14.576172 C 12.228516 13.940172 12.359188 13.425016 12.617188 13.041016 C 12.939187 12.563016 13.459125 12.300781 14.078125 12.300781 z M 14.076172 13.699219 C 13.859172 13.699219 13.810344 13.773266 13.777344 13.822266 C 13.721344 13.905266 13.626953 14.114172 13.626953 14.576172 C 13.626953 15.088172 13.72925 15.687125 13.90625 16.328125 C 14.16825 15.510125 14.317875 14.765781 14.296875 14.175781 C 14.280875 13.699781 14.166172 13.699219 14.076172 13.699219 z M 16.705078 21.804688 C 17.348078 22.592688 17.976844 23.099609 18.464844 23.099609 C 19.040844 23.099609 19.298828 22.903031 19.298828 22.707031 C 19.299828 22.523031 18.971891 22.294047 18.462891 22.123047 C 18.000891 21.968047 17.397078 21.860688 16.705078 21.804688 z M 10.748047 22.474609 C 9.4830469 22.901609 8.6992188 23.456937 8.6992188 23.960938 C 8.7002187 23.960938 8.7560625 24.300781 8.9140625 24.300781 C 9.2940625 24.273781 9.9860469 23.548609 10.748047 22.474609 z"/></svg>